<?xml version="1.0" encoding="iso-8859-1"?>
<!-- Generator: Adobe Illustrator 17.1.0, SVG Export Plug-In . SVG Version: 6.00 Build 0)  -->
<!DOCTYPE svg PUBLIC "-//W3C//DTD SVG 1.1//EN" "http://www.w3.org/Graphics/SVG/1.1/DTD/svg11.dtd">
<svg version="1.1" id="Capa_1" xmlns="http://www.w3.org/2000/svg" xmlns:xlink="http://www.w3.org/1999/xlink" x="0px" y="0px"
	 viewBox="0 0 297 297" style="enable-background:new 0 0 297 297;" xml:space="preserve">
<g>
	<rect x="99.5" y="222" width="98" height="19"/>
	<path d="M99.5,272.582c0,12.965,11.551,24.418,24.514,24.418h51.641c12.965,0,21.846-11.453,21.846-24.418V256h-98V272.582z"/>
	<path d="M197.5,90h-98v117h98V90z"/>
	<path d="M197.5,71.141C197.5,58.176,188.619,49,175.654,49H174.5V35h8V15.374C182.5,6.65,175.928,0,167.205,0h-34.744
		c-8.72,0-15.961,6.65-15.961,15.374V35h9v14h-1.486C111.051,49,99.5,58.176,99.5,71.141V75h98V71.141z"/>
	<path style="fill:#FFFFFF;" d="M135.229,155.378c0,8.072,6.549,14.622,14.622,14.622c8.074,0,14.622-6.55,14.622-14.622
		c0-12.126-14.622-29.378-14.622-29.378S135.229,143.252,135.229,155.378z"/>
</g>
<g>
</g>
<g>
</g>
<g>
</g>
<g>
</g>
<g>
</g>
<g>
</g>
<g>
</g>
<g>
</g>
<g>
</g>
<g>
</g>
<g>
</g>
<g>
</g>
<g>
</g>
<g>
</g>
<g>
</g>
</svg>
